<svg width="275" height="137" viewBox="0 0 275 137" fill="none" xmlns="http://www.w3.org/2000/svg">
<path d="M3.21377 96.7602V1.30505H36.962C43.1629 1.30505 48.3348 2.34599 52.4779 4.42786C56.621 6.50972 59.7352 9.39948 61.8204 13.0971C63.9057 16.7637 64.9483 20.9896 64.9483 25.7748C64.9483 29.5035 64.2898 32.7817 62.9728 35.6093C61.6558 38.4058 59.8449 40.7052 57.5402 42.5074C55.2628 44.2785 52.6563 45.537 49.7204 46.2827V47.2149C52.9306 47.3703 55.9351 48.3957 58.7337 50.2911C61.5598 52.1865 63.8508 54.8432 65.6068 58.2612C67.3628 61.6481 68.2408 65.6876 68.2408 70.3796C68.2408 75.4444 67.1296 79.9655 64.9071 83.9428C62.7121 87.889 59.4608 91.0118 55.1531 93.3112C50.8454 95.6106 45.5362 96.7602 39.2256 96.7602H3.21377ZM21.0345 80.2607H35.5627C40.5289 80.2607 44.1506 79.1887 46.4279 77.0446C48.7053 74.8696 49.8439 71.9798 49.8439 68.3754C49.8439 65.7342 49.2814 63.4038 48.1565 61.384C47.0316 59.3643 45.4265 57.7796 43.3412 56.6299C41.2834 55.4802 38.8277 54.9054 35.9742 54.9054H21.0345V80.2607ZM21.0345 41.2489H34.2457C36.6876 41.2489 38.8552 40.7673 40.7484 39.8041C42.669 38.8097 44.1781 37.4115 45.2756 35.6093C46.4005 33.807 46.963 31.6475 46.963 29.1306C46.963 25.6816 45.8792 22.9005 43.7116 20.7876C41.5715 18.6747 38.5259 17.6182 34.5749 17.6182H21.0345V41.2489Z" fill="#FFE600"/>
<path d="M97.6573 1.30505V96.7602H79.8366V1.30505H97.6573Z" fill="#FFE600"/>
<path d="M182.82 1.30505V96.7602H167.428L130.757 36.6813H130.14V96.7602H112.319V1.30505H127.959L164.341 61.3374H165.082V1.30505H182.82Z" fill="#FFE600"/>
<path d="M275 49.0326C275 59.442 273.258 68.2977 269.773 75.5998C266.316 82.9018 261.597 88.4794 255.615 92.3324C249.661 96.1543 242.967 98.0653 235.531 98.0653C228.041 98.0653 221.318 96.1388 215.364 92.2858C209.41 88.4328 204.705 82.8552 201.248 75.5532C197.791 68.2511 196.062 59.4109 196.062 49.0326C196.062 38.6233 197.791 29.7676 201.248 22.4655C204.705 15.1635 209.41 9.60145 215.364 5.77952C221.318 1.92651 228.041 0 235.531 0C242.967 0 249.661 1.92651 255.615 5.77952C261.597 9.60145 266.316 15.1635 269.773 22.4655C273.258 29.7676 275 38.6233 275 49.0326ZM256.932 49.0326C256.932 42.2899 256.041 36.6036 254.257 31.9738C252.501 27.3439 250.018 23.8327 246.808 21.4401C243.598 19.0475 239.839 17.8512 235.531 17.8512C231.223 17.8512 227.464 19.0475 224.254 21.4401C221.044 23.8327 218.547 27.3439 216.764 31.9738C215.008 36.6036 214.13 42.2899 214.13 49.0326C214.13 55.7754 215.008 61.4617 216.764 66.0915C218.547 70.7214 221.044 74.2326 224.254 76.6252C227.464 79.0178 231.223 80.2141 235.531 80.2141C239.839 80.2141 243.598 79.0178 246.808 76.6252C250.018 74.2326 252.501 70.7214 254.257 66.0915C256.041 61.4617 256.932 55.7754 256.932 49.0326Z" fill="#FFE600"/>
<path d="M0 115.955H4.77771L9.82384 129.897H10.0386L15.0847 115.955H19.8624V136.706H16.1047V123.2H15.9526L11.2106 136.605H8.65178L3.90985 123.149H3.75775V136.706H0V115.955Z" fill="#FFE600"/>
<path d="M39.8926 126.331C39.8926 128.594 39.5138 130.519 38.7563 132.106C38.0048 133.693 36.9788 134.906 35.6785 135.744C34.3842 136.574 32.9288 136.99 31.3124 136.99C29.684 136.99 28.2227 136.571 26.9283 135.733C25.634 134.896 24.611 133.683 23.8595 132.096C23.1079 130.509 22.7322 128.587 22.7322 126.331C22.7322 124.068 23.1079 122.143 23.8595 120.555C24.611 118.968 25.634 117.759 26.9283 116.928C28.2227 116.09 29.684 115.671 31.3124 115.671C32.9288 115.671 34.3842 116.09 35.6785 116.928C36.9788 117.759 38.0048 118.968 38.7563 120.555C39.5138 122.143 39.8926 124.068 39.8926 126.331ZM35.9648 126.331C35.9648 124.865 35.771 123.629 35.3833 122.622C35.0015 121.616 34.4617 120.852 33.7639 120.332C33.066 119.812 32.2488 119.552 31.3124 119.552C30.3759 119.552 29.5588 119.812 28.8609 120.332C28.163 120.852 27.6202 121.616 27.2325 122.622C26.8508 123.629 26.6599 124.865 26.6599 126.331C26.6599 127.796 26.8508 129.033 27.2325 130.039C27.6202 131.046 28.163 131.809 28.8609 132.329C29.5588 132.849 30.3759 133.109 31.3124 133.109C32.2488 133.109 33.066 132.849 33.7639 132.329C34.4617 131.809 35.0015 131.046 35.3833 130.039C35.771 129.033 35.9648 127.796 35.9648 126.331Z" fill="#FFE600"/>
<path d="M45.0394 115.955L49.4681 131.721H49.6381L54.0759 115.955H58.3704L52.0538 136.706H47.0614L40.7358 115.955H45.0394Z" fill="#FFE600"/>
<path d="M60.5759 136.706V115.955H72.9228V119.572H64.4499V124.517H72.2875V128.134H64.4499V133.089H72.9586V136.706H60.5759Z" fill="#FFE600"/>
<path d="M79.8769 115.955V136.706H76.0028V115.955H79.8769Z" fill="#FFE600"/>
<path d="M93.0044 121.923C92.9328 121.106 92.6256 120.471 92.0828 120.018C91.5401 119.566 90.8034 119.339 89.8729 119.339C89.2407 119.339 88.7068 119.441 88.2714 119.643C87.836 119.839 87.502 120.113 87.2693 120.464C87.0427 120.815 86.9294 121.214 86.9294 121.66C86.9174 122.031 86.986 122.355 87.1351 122.632C87.2902 122.909 87.502 123.149 87.7704 123.352C88.0388 123.548 88.349 123.72 88.7009 123.868C89.0528 124.01 89.4286 124.132 89.8282 124.233L91.4745 124.679C92.2737 124.882 93.0074 125.152 93.6754 125.49C94.3435 125.827 94.922 126.243 95.4111 126.736C95.9003 127.229 96.279 127.81 96.5474 128.479C96.8218 129.147 96.962 129.914 96.9679 130.779C96.962 132.049 96.6757 133.15 96.109 134.082C95.5483 135.007 94.7371 135.727 93.6754 136.24C92.6197 136.747 91.3462 137 89.855 137C88.3758 137 87.0874 136.743 85.9899 136.23C84.8984 135.717 84.0454 134.957 83.4311 133.95C82.8227 132.937 82.5036 131.684 82.4737 130.191H86.2225C86.2643 130.887 86.4403 131.468 86.7504 131.934C87.0665 132.393 87.4871 132.741 88.012 132.977C88.5428 133.207 89.1423 133.322 89.8103 133.322C90.4664 133.322 91.036 133.214 91.5192 132.998C92.0083 132.782 92.3871 132.481 92.6555 132.096C92.9239 131.711 93.0581 131.268 93.0581 130.769C93.0581 130.302 92.9358 129.911 92.6912 129.593C92.4527 129.276 92.1007 129.006 91.6355 128.783C91.1762 128.56 90.6126 128.357 89.9445 128.175L87.9493 127.607C86.4045 127.182 85.1847 126.516 84.29 125.611C83.3953 124.706 82.9509 123.487 82.9569 121.953C82.9509 120.697 83.2462 119.599 83.8426 118.66C84.4451 117.721 85.2712 116.989 86.321 116.462C87.3707 115.935 88.5637 115.671 89.8998 115.671C91.2597 115.671 92.4467 115.935 93.4607 116.462C94.4806 116.989 95.274 117.721 95.8406 118.66C96.4072 119.599 96.6995 120.687 96.7174 121.923H93.0044Z" fill="#FFE600"/>
<path d="M105.405 136.706V115.955H112.634C114.024 115.955 115.208 116.256 116.186 116.857C117.164 117.451 117.91 118.279 118.423 119.339C118.942 120.393 119.201 121.609 119.201 122.987C119.201 124.365 118.939 125.581 118.414 126.635C117.889 127.688 117.129 128.509 116.132 129.097C115.142 129.684 113.943 129.978 112.536 129.978H107.928V126.462H111.909C112.655 126.462 113.269 126.317 113.753 126.027C114.242 125.729 114.606 125.321 114.844 124.801C115.089 124.274 115.211 123.669 115.211 122.987C115.211 122.298 115.089 121.697 114.844 121.183C114.606 120.663 114.242 120.261 113.753 119.978C113.263 119.687 112.643 119.542 111.892 119.542H109.279V136.706H105.405Z" fill="#FFE600"/>
<path d="M121.718 136.706V115.955H125.592V133.089H133.447V136.706H121.718Z" fill="#FFE600"/>
<path d="M139.639 136.706H135.487L141.813 115.955H146.805L153.122 136.706H148.97L144.38 120.697H144.237L139.639 136.706ZM139.379 128.55H149.185V131.974H139.379V128.55Z" fill="#FFE600"/>
<path d="M170.653 115.955V136.706H167.307L159.335 123.646H159.201V136.706H155.327V115.955H158.727L166.636 129.006H166.797V115.955H170.653Z" fill="#FFE600"/>
<path d="M173.854 136.706V115.955H186.201V119.572H177.728V124.517H185.566V128.134H177.728V133.089H186.237V136.706H173.854Z" fill="#FFE600"/>
<path d="M196.618 115.955H200.447V130.424C200.447 131.762 200.182 132.923 199.651 133.91C199.126 134.896 198.395 135.656 197.459 136.189C196.522 136.723 195.434 136.99 194.193 136.99C193.09 136.99 192.088 136.77 191.187 136.331C190.292 135.885 189.582 135.21 189.057 134.305C188.533 133.393 188.273 132.248 188.279 130.87H192.135C192.147 131.417 192.246 131.887 192.431 132.278C192.621 132.663 192.881 132.961 193.209 133.17C193.543 133.373 193.937 133.474 194.39 133.474C194.867 133.474 195.27 133.359 195.598 133.129C195.932 132.893 196.185 132.549 196.358 132.096C196.531 131.643 196.618 131.086 196.618 130.424V115.955Z" fill="#FFE600"/>
<path d="M206.808 136.706H202.657L208.983 115.955H213.975L220.292 136.706H216.14L211.55 120.697H211.407L206.808 136.706ZM206.549 128.55H216.355V131.974H206.549V128.55Z" fill="#FFE600"/>
<path d="M228.993 136.706H222.497V115.955H229.046C230.889 115.955 232.476 116.37 233.806 117.201C235.136 118.025 236.159 119.211 236.875 120.758C237.597 122.305 237.957 124.156 237.957 126.31C237.957 128.472 237.597 130.33 236.875 131.883C236.159 133.437 235.13 134.629 233.788 135.46C232.452 136.291 230.854 136.706 228.993 136.706ZM226.371 132.947H228.832C229.977 132.947 230.94 132.717 231.721 132.258C232.509 131.792 233.099 131.073 233.493 130.1C233.893 129.12 234.092 127.857 234.092 126.31C234.092 124.777 233.893 123.524 233.493 122.551C233.099 121.579 232.512 120.862 231.73 120.403C230.949 119.944 229.986 119.714 228.84 119.714H226.371V132.947Z" fill="#FFE600"/>
<path d="M257.666 126.331C257.666 128.594 257.287 130.519 256.529 132.106C255.778 133.693 254.752 134.906 253.451 135.744C252.157 136.574 250.702 136.99 249.085 136.99C247.457 136.99 245.996 136.571 244.701 135.733C243.407 134.896 242.384 133.683 241.632 132.096C240.881 130.509 240.505 128.587 240.505 126.331C240.505 124.068 240.881 122.143 241.632 120.555C242.384 118.968 243.407 117.759 244.701 116.928C245.996 116.09 247.457 115.671 249.085 115.671C250.702 115.671 252.157 116.09 253.451 116.928C254.752 117.759 255.778 118.968 256.529 120.555C257.287 122.143 257.666 124.068 257.666 126.331ZM253.738 126.331C253.738 124.865 253.544 123.629 253.156 122.622C252.775 121.616 252.235 120.852 251.537 120.332C250.839 119.812 250.022 119.552 249.085 119.552C248.149 119.552 247.332 119.812 246.634 120.332C245.936 120.852 245.393 121.616 245.006 122.622C244.624 123.629 244.433 124.865 244.433 126.331C244.433 127.796 244.624 129.033 245.006 130.039C245.393 131.046 245.936 131.809 246.634 132.329C247.332 132.849 248.149 133.109 249.085 133.109C250.022 133.109 250.839 132.849 251.537 132.329C252.235 131.809 252.775 131.046 253.156 130.039C253.544 129.033 253.738 127.796 253.738 126.331Z" fill="#FFE600"/>
<path d="M270.475 121.923C270.404 121.106 270.097 120.471 269.554 120.018C269.011 119.566 268.275 119.339 267.344 119.339C266.712 119.339 266.178 119.441 265.742 119.643C265.307 119.839 264.973 120.113 264.74 120.464C264.514 120.815 264.4 121.214 264.4 121.66C264.388 122.031 264.457 122.355 264.606 122.632C264.761 122.909 264.973 123.149 265.241 123.352C265.51 123.548 265.82 123.72 266.172 123.868C266.524 124.01 266.9 124.132 267.299 124.233L268.946 124.679C269.745 124.882 270.478 125.152 271.146 125.49C271.815 125.827 272.393 126.243 272.882 126.736C273.371 127.229 273.75 127.81 274.018 128.479C274.293 129.147 274.433 129.914 274.439 130.779C274.433 132.049 274.147 133.15 273.58 134.082C273.019 135.007 272.208 135.727 271.146 136.24C270.091 136.747 268.817 137 267.326 137C265.847 137 264.559 136.743 263.461 136.23C262.369 135.717 261.517 134.957 260.902 133.95C260.294 132.937 259.975 131.684 259.945 130.191H263.694C263.735 130.887 263.911 131.468 264.221 131.934C264.538 132.393 264.958 132.741 265.483 132.977C266.014 133.207 266.613 133.322 267.281 133.322C267.938 133.322 268.507 133.214 268.99 132.998C269.479 132.782 269.858 132.481 270.127 132.096C270.395 131.711 270.529 131.268 270.529 130.769C270.529 130.302 270.407 129.911 270.162 129.593C269.924 129.276 269.572 129.006 269.107 128.783C268.647 128.56 268.084 128.357 267.416 128.175L265.42 127.607C263.876 127.182 262.656 126.516 261.761 125.611C260.866 124.706 260.422 123.487 260.428 121.953C260.422 120.697 260.717 119.599 261.314 118.66C261.916 117.721 262.742 116.989 263.792 116.462C264.842 115.935 266.035 115.671 267.371 115.671C268.731 115.671 269.918 115.935 270.932 116.462C271.952 116.989 272.745 117.721 273.312 118.66C273.878 119.599 274.171 120.687 274.188 121.923H270.475Z" fill="#FFE600"/>
</svg>
